<svg width="200" height="60" viewBox="0 0 200 60" fill="none" xmlns="http://www.w3.org/2000/svg">
  <path d="M20 10H35C40.5228 10 45 14.4772 45 20V40C45 45.5228 40.5228 50 35 50H20C14.4772 50 10 45.5228 10 40V20C10 14.4772 14.4772 10 20 10Z" fill="#E30613"/>
  <path d="M60 15H75C80.5228 15 85 19.4772 85 25V35C85 40.5228 80.5228 45 75 45H60V15Z" fill="#E30613"/>
  <path d="M95 15H110C115.523 15 120 19.4772 120 25V35C120 40.5228 115.523 45 110 45H95V15Z" fill="#FFFFFF"/>
  <path d="M130 15H145C150.523 15 155 19.4772 155 25V35C155 40.5228 150.523 45 145 45H130V15Z" fill="#E30613"/>
  <path d="M165 15H180C185.523 15 190 19.4772 190 25V35C190 40.5228 185.523 45 180 45H165V15Z" fill="#E30613"/>
  <text x="20" y="35" font-family="Arial" font-weight="bold" font-size="16" fill="white">D</text>
  <text x="60" y="35" font-family="Arial" font-weight="bold" font-size="16" fill="white">Ö</text>
  <text x="95" y="35" font-family="Arial" font-weight="bold" font-size="16" fill="#E30613">N</text>
  <text x="130" y="35" font-family="Arial" font-weight="bold" font-size="16" fill="white">E</text>
  <text x="165" y="35" font-family="Arial" font-weight="bold" font-size="16" fill="white">R</text>
  <text x="60" y="55" font-family="Arial" font-weight="bold" font-size="12" fill="#E30613">BANK</text>
</svg> 